<?xml version="1.0" standalone="no"?>
<!DOCTYPE svg PUBLIC "-//W3C//DTD SVG 20010904//EN"
 "http://www.w3.org/TR/2001/REC-SVG-20010904/DTD/svg10.dtd">
<svg version="1.0" xmlns="http://www.w3.org/2000/svg"
 width="300.000000pt" height="300.000000pt" viewBox="0 0 300.000000 300.000000"
 preserveAspectRatio="xMidYMid meet">
<metadata>
Created by potrace 1.11, written by Peter Selinger 2001-2013
</metadata>
<g transform="translate(0.000000,300.000000) scale(0.100000,-0.100000)"
fill="#000000" stroke="none">
<path d="M1349 2996 c-2 -2 -31 -7 -64 -11 -32 -3 -62 -8 -65 -10 -3 -2 -21
-6 -40 -9 -19 -3 -66 -15 -105 -26 -90 -27 -85 -25 -118 -38 -16 -7 -31 -12
-33 -12 -13 0 -209 -103 -212 -111 -2 -5 -9 -9 -16 -9 -7 0 -23 -9 -36 -20
-13 -11 -26 -20 -29 -20 -3 0 -18 -10 -32 -23 -15 -12 -44 -35 -65 -52 -44
-35 -154 -144 -202 -201 -67 -79 -206 -306 -217 -354 -1 -3 -6 -16 -12 -30
-26 -61 -37 -92 -66 -200 -30 -111 -31 -122 -33 -350 -3 -243 -3 -243 46 -438
13 -53 76 -215 102 -262 11 -19 30 -53 41 -75 12 -22 30 -49 39 -59 10 -11 18
-23 18 -27 0 -4 27 -42 61 -84 208 -263 486 -445 800 -526 46 -11 93 -22 104
-24 106 -16 148 -20 270 -20 154 0 212 5 325 30 160 34 371 123 499 209 29 20
56 36 60 36 3 0 12 9 19 20 7 11 17 20 22 20 30 0 290 268 290 298 0 6 3 12 8
14 14 6 82 117 127 205 45 91 109 270 119 337 4 22 8 48 11 60 14 61 17 94 20
231 4 163 -7 271 -45 415 -16 65 -49 158 -66 191 -8 16 -14 31 -14 34 1 7 -53
118 -60 125 -3 3 -14 21 -24 40 -65 119 -229 307 -356 407 -109 86 -332 213
-373 213 -7 0 -17 4 -23 8 -10 9 -121 47 -164 56 -57 13 -117 25 -150 31 -39
7 -355 17 -361 11z"/>
</g>
</svg>
